<?xml version="1.0"?>
<svg xmlns="http://www.w3.org/2000/svg" xmlns:xlink="http://www.w3.org/1999/xlink" version="1.1" id="Capa_1" x="0px" y="0px" viewBox="0 0 512 512" style="enable-background:new 0 0 512 512;" xml:space="preserve" width="512px" height="512px"><g transform="matrix(0.777822 0 0 0.777822 56.8777 56.8777)"><path style="fill:#5A6B96;" d="M253.801,503.969c-10.518,0-19.075-8.556-19.075-19.075v-9.537c0-10.518,8.556-19.075,19.075-19.075  h30.089c10.518,0,19.075,8.556,19.075,19.075v9.537c0,10.518-8.556,19.075-19.075,19.075H253.801z" data-original="#5A6B96"/><path style="fill:#FF4F4F;" d="M400.424,377.444V248.852h38.862c11.951,0,21.675,9.724,21.675,21.675v85.253  c0,11.946-9.724,21.665-21.675,21.665H400.424z" data-original="#FF4F4F"/><g>
	<path style="fill:#5A6B96;" d="M360.408,395.495c-9.101,0-16.504-7.409-16.504-16.515V247.316c0-9.1,7.404-16.503,16.504-16.503   h27.517c9.106,0,16.515,7.404,16.515,16.503V378.98c0,9.106-7.409,16.515-16.515,16.515H360.408z" data-original="#5A6B96"/>
	<path style="fill:#5A6B96;" d="M124.075,395.495c-9.106,0-16.515-7.409-16.515-16.515V247.316c0-9.1,7.409-16.503,16.515-16.503   h27.517c9.101,0,16.504,7.404,16.504,16.503V378.98c0,9.106-7.404,16.515-16.504,16.515H124.075z" data-original="#5A6B96"/>
</g><path style="fill:#FF4F4F;" d="M72.714,377.444c-11.951,0-21.675-9.719-21.675-21.665v-85.253c0-11.951,9.724-21.675,21.675-21.675  h38.862v128.592L72.714,377.444L72.714,377.444z" data-original="#FF4F4F"/><path d="M439.286,385.476c16.379,0,29.706-13.322,29.706-29.696v-79.762v-63.026c0-47.637-15.376-92.682-44.467-130.266  c-3.394-4.384-9.7-5.186-14.084-1.794c-4.384,3.394-5.187,9.7-1.794,14.084c26.343,34.032,40.266,74.828,40.266,117.976v29.439  c-3.022-1.038-6.258-1.61-9.628-1.61h-27.694c-2.856-10.386-12.381-18.04-23.666-18.04h-27.518  c-13.53,0-24.536,11.007-24.536,24.535V378.98c0,13.534,11.007,24.546,24.536,24.546h27.517c1.302,0,2.579-0.104,3.827-0.3  c-4.803,37.652-37.028,66.86-75.969,66.86h-5.307c-2.461-12.432-13.445-21.835-26.587-21.835h-30.089  c-14.946,0-27.106,12.159-27.106,27.106v9.537c0,14.946,12.16,27.106,27.106,27.106h30.089c13.142,0,24.127-9.404,26.587-21.835  h5.307c53.313,0,96.689-43.369,96.689-96.678c0-2.062-0.623-3.979-1.691-5.573c0.311-0.794,0.583-1.607,0.811-2.439L439.286,385.476  L439.286,385.476z M290.916,484.894c0,3.874-3.153,7.027-7.027,7.027h-30.088c-3.874,0-7.027-3.153-7.027-7.027v-9.537  c0-3.874,3.153-7.027,7.027-7.027h30.089c3.874,0,7.027,3.153,7.027,7.027v9.537H290.916z M448.914,270.527v5.492v79.761  c0,5.303-4.319,9.618-9.628,9.618h-26.815V260.899h26.815C444.595,260.899,448.914,265.218,448.914,270.527z M387.925,383.448  h-27.517c-2.458,0-4.457-2.004-4.457-4.467V247.316c0-2.458,2-4.456,4.457-4.456h27.517c2.464,0,4.467,1.999,4.467,4.456v3.544  v124.577v3.544C392.393,381.444,390.389,383.448,387.925,383.448z" data-original="#000000" class="active-path" style="fill:#000000"/><path d="M119.587,76.581C156.034,40.145,204.479,20.078,256,20.078c40.606,0,79.448,12.468,112.326,36.055  c4.504,3.233,10.777,2.201,14.009-2.305c3.233-4.505,2.2-10.777-2.305-14.009C343.72,13.77,300.83,0,256,0  c-56.883,0-110.37,22.154-150.61,62.384c-40.228,40.238-62.382,93.725-62.382,150.608v63.026v79.761  c0,16.375,13.326,29.696,29.706,29.696h27.693c2.855,10.392,12.381,18.051,23.667,18.051h27.517  c13.53,0,24.536-11.012,24.536-24.546V247.316c0-13.529-11.007-24.535-24.536-24.535h-27.517c-11.285,0-20.81,7.655-23.666,18.04  H72.714c-3.369,0-6.606,0.572-9.628,1.61v-29.44C63.086,161.471,83.153,113.026,119.587,76.581z M119.607,247.316  c0-2.458,2.004-4.456,4.467-4.456h27.517c2.458,0,4.457,1.999,4.457,4.456V378.98c0,2.464-2,4.467-4.457,4.467h-27.517  c-2.464,0-4.467-2.004-4.467-4.467v-3.544V250.86V247.316z M72.714,260.899h26.815v104.498H72.714c-5.309,0-9.628-4.315-9.628-9.618  v-79.762v-5.492C63.086,265.218,67.405,260.899,72.714,260.899z" data-original="#000000" class="active-path" style="fill:#000000"/><path d="M396.215,76.298c12.919,0,12.941-20.078,0-20.078C383.295,56.22,383.273,76.298,396.215,76.298z" data-original="#000000" class="active-path" style="fill:#000000"/></g> </svg>
