<?xml version="1.0"?>
<svg xmlns="http://www.w3.org/2000/svg" xmlns:xlink="http://www.w3.org/1999/xlink" version="1.1" id="Capa_1" x="0px" y="0px" viewBox="0 0 512 512" style="enable-background:new 0 0 512 512;" xml:space="preserve" width="512px" height="512px" class=""><g transform="matrix(0.0981042 0 0 0.0981042 230.885 230.885)"><path style="fill:#FFE1B3;" d="M471.03,435.504l-29.278-5.733c-13.148-2.574-22.446-12.386-22.446-23.685v-27.772h-65.523v27.772  c0,11.299-9.298,21.111-22.446,23.685l-29.277,5.733c-23.998,4.699-40.97,22.608-40.97,43.233v27.352  c0,2.271,1.841,4.112,4.112,4.112h242.685c2.271,0,4.112-1.841,4.112-4.112v-27.353C512,458.112,495.028,440.203,471.03,435.504z" data-original="#FFE1B3" class=""/><path style="fill:#F0C891;" d="M385.412,415.556L385.412,415.556c12.602,0,24.284-3.93,33.895-10.626v-26.617h-65.523v27.772  c0,0.115-0.007,0.228-0.009,0.343C362.935,412.209,373.782,415.556,385.412,415.556z" data-original="#F0C891" class=""/><path style="fill:#FFE1B3;" d="M385.413,401.415L385.413,401.415c-32.786,0-59.364-26.578-59.364-59.364V293.52  c0-32.786,26.578-59.364,59.364-59.364l0,0c32.786,0,59.364,26.578,59.364,59.364v48.533  C444.776,374.838,418.198,401.415,385.413,401.415z" data-original="#FFE1B3" class=""/><path style="fill:#B28362;" d="M385.413,373.103c-6.292,0-12.583-2.395-17.374-7.185c-2.929-2.929-2.929-7.678,0-10.606  c2.93-2.93,7.677-2.929,10.607-0.001c3.732,3.73,9.803,3.732,13.536,0c2.929-2.929,7.678-2.928,10.606,0.001  s2.928,7.678-0.001,10.606C397.997,370.708,391.704,373.103,385.413,373.103z" data-original="#B28362"/><path style="fill:#FAD7A5;" d="M396.356,235.166c15.061,10.767,24.879,28.399,24.879,48.324v48.533  c0,32.786-26.578,59.364-59.364,59.364l0,0c-3.739,0-7.396-0.349-10.943-1.011c9.72,6.949,21.624,11.039,34.484,11.039l0,0  c32.786,0,59.364-26.578,59.364-59.364V293.52C444.776,264.473,423.914,240.303,396.356,235.166z" data-original="#FAD7A5" class=""/><path style="fill:#B48765;" d="M323.676,253.39c-3.001,4.807-7.029,12.551-9.161,22.827c-1.849,8.912-1.614,16.553-1.036,21.818  c7.223-1.783,12.859-4.334,16.764-6.433c1.541-0.828,9.159-4.997,17.105-12.694l0,0L323.676,253.39z" data-original="#B48765" class=""/><path style="fill:#966D50;" d="M461.056,286.983c-5.055-18.727-13.449-36.559-27.103-49.766  c-4.426-4.281-21.057-20.368-45.672-21.64c0,0-25.685-1.327-47.864,17.546c-6.691,5.694-12.201,12.597-16.74,20.266  c20.643,29.536,51.613,48.318,86.241,48.318c8.528,0,26.345-2.601,34.859-8.188" data-original="#966D50" class=""/><path style="fill:#846047;" d="M433.952,237.217c-4.426-4.281-21.057-20.368-45.672-21.64c0,0-7.286-0.376-17.447,2.123  c17.406,4.798,29.033,16.043,32.624,19.517c13.654,13.207,22.048,31.039,27.103,49.766l-16.279,6.536  c-4.945,3.245-13.027,5.481-20.605,6.786c5.303,0.921,10.725,1.402,16.241,1.402c8.527,0,26.345-2.601,34.859-8.188l16.279-6.536  C456,268.256,447.606,250.425,433.952,237.217z" data-original="#846047"/><g>
	<circle style="fill:#53515E;" cx="361.87" cy="316.68" r="6.58" data-original="#53515E" class=""/>
	<circle style="fill:#53515E;" cx="406.61" cy="316.68" r="6.58" data-original="#53515E" class=""/>
</g><path style="fill:#FF9EA4;" d="M471.03,435.504l-29.278-5.733c-4.551-0.891-8.639-2.65-12.042-5.037  c-11.542,10.078-26.639,16.185-43.165,16.185c-16.525,0-31.624-6.107-43.165-16.185c-3.402,2.387-7.491,4.146-12.042,5.037  l-29.277,5.733c-23.998,4.699-40.97,22.608-40.97,43.233v27.352c0,2.271,1.841,4.112,4.112,4.112h242.685  c2.271,0,4.112-1.841,4.112-4.112v-27.353C512,458.112,495.028,440.203,471.03,435.504z" data-original="#FF9EA4" class=""/><g>
	<path style="fill:#FF7B97;" d="M277.462,446.671c-10.18,8.162-16.37,19.616-16.37,32.065v27.352c0,2.271,1.841,4.112,4.112,4.112   h43.439v-29.072C308.642,463.167,294.967,448.402,277.462,446.671z" data-original="#FF7B97" class=""/>
	<path style="fill:#FF7B97;" d="M495.63,446.671c-17.506,1.731-31.181,16.496-31.181,34.457l0.05,29.072h43.389   c2.271,0,4.112-1.841,4.112-4.112v-27.353C512,466.288,505.81,454.834,495.63,446.671z" data-original="#FF7B97" class=""/>
</g><circle style="fill:#DEAF73;" cx="53.19" cy="270.25" r="53.19" data-original="#DEAF73"/><path style="fill:#FF80BD;" d="M182.885,435.507l-7.887-1.845H49.373l-7.887,1.846c-20.083,4.699-34.285,22.608-34.285,43.233  v27.349c0,2.271,1.841,4.112,4.112,4.112h201.746c2.271,0,4.112-1.841,4.112-4.112v-27.35  C217.17,458.115,202.968,440.206,182.885,435.507z" data-original="#FF80BD"/><path style="fill:#FAD7A5;" d="M112.185,472.188c27.417,0,51.16-15.667,62.812-38.526l-16.613-3.887  c-11.002-2.574-18.783-12.386-18.783-23.686v-27.773H84.77v27.773c0,11.3-7.781,21.111-18.783,23.686l-16.613,3.887  C61.025,456.521,84.768,472.188,112.185,472.188z" data-original="#FAD7A5" class=""/><circle style="fill:#CD905A;" cx="61.66" cy="295.7" r="22.596" data-original="#CD905A" class=""/><path style="fill:#F0C891;" d="M139.601,406.089v-27.773H84.77v27.773c0,0.843-0.049,1.677-0.133,2.501  c7.957,3.962,16.923,6.202,26.416,6.202l0,0c10.367,0,20.11-2.664,28.592-7.335C139.619,407.003,139.601,406.547,139.601,406.089z" data-original="#F0C891" class=""/><path style="fill:#FFE1B3;" d="M111.052,401.418L111.052,401.418c-32.786,0-59.365-26.578-59.365-59.365V293.52  c0-32.786,26.578-59.365,59.365-59.365l0,0c32.786,0,59.365,26.578,59.365,59.365v48.533  C170.417,374.84,143.838,401.418,111.052,401.418z" data-original="#FFE1B3" class=""/><path style="fill:#FAD7A5;" d="M120.921,234.988c15.666,10.687,25.955,28.676,25.955,49.071v48.533  c0,32.786-26.578,59.365-59.365,59.365l0,0c-3.364,0-6.657-0.294-9.868-0.832c9.518,6.493,21.019,10.294,33.41,10.294l0,0  c32.786,0,59.365-26.578,59.365-59.365v-48.533C170.417,264.098,149.007,239.69,120.921,234.988z" data-original="#FAD7A5" class=""/><path style="fill:#CD905A;" d="M49.315,253.39c-3.001,4.807-7.029,12.551-9.161,22.827c-1.849,8.912-1.614,16.554-1.036,21.818  c7.223-1.783,12.859-4.334,16.764-6.433c1.541-0.828,9.159-4.997,17.105-12.694l0,0L49.315,253.39z" data-original="#CD905A" class=""/><path style="fill:#D59F63;" d="M186.696,286.984c-5.055-18.727-13.449-36.559-27.104-49.767  c-4.426-4.281-21.057-20.369-45.672-21.64c0,0-25.686-1.327-47.865,17.546c-3.346,2.847-6.396,5.996-9.177,9.393  c-2.781,3.396-5.293,7.039-7.563,10.874c20.644,29.536,51.614,48.319,86.242,48.319c8.528,0,26.345-2.601,34.859-8.188  L186.696,286.984z" data-original="#D59F63" class=""/><path style="fill:#CD905A;" d="M159.593,237.218c-4.426-4.281-21.057-20.369-45.672-21.64c0,0-6.227-0.316-15.19,1.607  c18.518,4.452,30.902,16.428,34.629,20.033c13.654,13.208,22.048,31.039,27.104,49.767l-16.279,6.536  c-5.405,3.547-14.56,5.889-22.707,7.128c4.614,0.692,9.311,1.061,14.081,1.061c8.528,0,26.345-2.601,34.859-8.188l16.279-6.536  C181.641,268.257,173.247,250.425,159.593,237.218z" data-original="#CD905A" class=""/><g>
	<circle style="fill:#53515E;" cx="87.51" cy="316.69" r="6.58" data-original="#53515E" class=""/>
	<circle style="fill:#53515E;" cx="132.25" cy="316.69" r="6.58" data-original="#53515E" class=""/>
</g><g>
	<path style="fill:#FF5CA6;" d="M20.829,457.085h-7.974c-3.616,6.418-5.654,13.795-5.654,21.563v27.441   c0,2.271,1.841,4.112,4.112,4.112h35.351V482.92C46.664,468.652,35.097,457.085,20.829,457.085z" data-original="#FF5CA6"/>
	<path style="fill:#FF5CA6;" d="M203.542,457.085h7.974c3.616,6.418,5.654,13.795,5.654,21.563v27.441   c0,2.271-1.841,4.112-4.112,4.112h-35.351V482.92C177.707,468.652,189.274,457.085,203.542,457.085z" data-original="#FF5CA6"/>
</g><path style="fill:#B28362;" d="M111.052,373.103c-6.292,0-12.584-2.395-17.374-7.184c-2.929-2.929-2.93-7.678-0.001-10.606  c2.929-2.93,7.678-2.929,10.606-0.001c3.732,3.732,9.805,3.732,13.537,0c2.929-2.928,7.678-2.929,10.606,0.001  c2.929,2.929,2.928,7.678-0.001,10.606C123.636,370.708,117.344,373.103,111.052,373.103z" data-original="#B28362"/><path style="fill:#C7CFE2;" d="M196.762,1.801C148.5,1.473,108.641,40.755,108.3,89.017c-0.198,27.935,12.648,52.874,32.803,69.101  c-1.922,9.753-5.816,21.668-13.697,31.218c-2.329,2.822-0.077,7.007,3.554,6.557c4.056-0.502,8.58-1.369,13.401-2.816  c5.647-1.694,19.896-6.16,31.865-17.84c7.121,1.652,14.574,2.438,22.243,2.241c46.742-1.204,84.672-39.438,85.523-86.187  C284.883,42.225,245.545,2.133,196.762,1.801z" data-original="#C7CFE2" class=""/><path style="fill:#959CB3;" d="M206.991,69.59h-46.529c-4.483,0-8.117-3.634-8.117-8.117s3.633-8.117,8.117-8.117h46.529  c4.483,0,8.117,3.634,8.117,8.117C215.108,65.956,211.474,69.59,206.991,69.59z" data-original="#959CB3" class=""/><g>
	<path style="fill:#AFB9D2;" d="M203.043,100.703H157.48c-4.483,0-8.117-3.634-8.117-8.117s3.633-8.117,8.117-8.117h45.562   c4.483,0,8.117,3.634,8.117,8.117S207.526,100.703,203.043,100.703z" data-original="#AFB9D2" class=""/>
	<path style="fill:#AFB9D2;" d="M209.931,131.816h-49.47c-4.483,0-8.117-3.634-8.117-8.117c0-4.483,3.633-8.117,8.117-8.117h49.47   c4.483,0,8.117,3.634,8.117,8.117C218.048,128.182,214.414,131.816,209.931,131.816z" data-original="#AFB9D2" class=""/>
	<path style="fill:#AFB9D2;" d="M191.331,90.281c0.591,32.442,16.94,61.263,41.687,79.049   c29.578-13.794,50.346-43.595,50.973-78.039c0.671-36.872-21.38-68.672-53.084-82.343   C206.401,27.468,190.726,57.057,191.331,90.281z" data-original="#AFB9D2" class=""/>
</g><path style="fill:#E4EAF5;" d="M290.271,1.801c48.262-0.328,88.121,38.954,88.462,87.216c0.198,27.935-12.648,52.874-32.803,69.101  c1.922,9.753,5.816,21.668,13.697,31.218c2.329,2.822,0.077,7.007-3.554,6.557c-4.056-0.502-8.58-1.369-13.401-2.816  c-5.647-1.694-19.896-6.16-31.865-17.84c-7.121,1.652-14.574,2.438-22.243,2.241c-46.742-1.204-84.672-39.438-85.523-86.187  C202.149,42.225,241.488,2.133,290.271,1.801z" data-original="#E4EAF5" class=""/><path style="fill:#C7CFE2;" d="M336.677,68.237h-88.178c-4.483,0-8.117-3.634-8.117-8.117s3.633-8.117,8.117-8.117h88.178  c4.483,0,8.117,3.634,8.117,8.117C344.794,64.603,341.16,68.237,336.677,68.237z" data-original="#C7CFE2" class=""/><path style="fill:#AFB9D2;" d="M336.677,99.35h-88.178c-4.483,0-8.117-3.634-8.117-8.117s3.633-8.117,8.117-8.117h88.178  c4.483,0,8.117,3.634,8.117,8.117S341.16,99.35,336.677,99.35z" data-original="#AFB9D2" class=""/><path style="fill:#C7CFE2;" d="M294.016,130.464h-45.518c-4.483,0-8.117-3.634-8.117-8.117s3.633-8.117,8.117-8.117h45.518  c4.483,0,8.117,3.634,8.117,8.117S298.499,130.464,294.016,130.464z" data-original="#C7CFE2" class=""/></g> </svg>
