<?xml version="1.0"?>
<svg xmlns="http://www.w3.org/2000/svg" xmlns:xlink="http://www.w3.org/1999/xlink" version="1.1" id="Capa_1" x="0px" y="0px" viewBox="0 0 512.001 512.001" style="enable-background:new 0 0 512.001 512.001;" xml:space="preserve" width="512px" height="512px"><g transform="matrix(0.770043 0 0 0.770043 58.869 58.869)"><path style="fill:#F8C087;" d="M504.501,256c-43.721,94.851-138.545,160.566-248.5,160.566S51.222,350.851,7.501,256  c43.721-94.851,138.545-160.566,248.5-160.566S460.78,161.149,504.501,256z" data-original="#F8C087"/><path style="fill:#F8AF78;" d="M272.018,416.093c-5.3,0.31-10.64,0.472-16.017,0.472C146.046,416.566,51.222,350.851,7.501,256  c43.721-94.851,138.545-160.566,248.5-160.566c5.377,0,10.716,0.162,16.017,0.472C168.929,101.936,81.118,165.788,39.534,256  C81.118,346.212,168.929,410.064,272.018,416.093z" data-original="#F8AF78"/><path style="fill:#F5F5F5;" d="M148.253,256c0,40.579,18.25,76.422,46.137,98.017C111.406,341.663,42.798,304.897,7.501,256  c35.297-48.898,103.906-85.663,186.89-98.017C166.503,179.578,148.253,215.421,148.253,256z M317.612,157.982  C345.499,179.577,363.75,215.42,363.75,256c0,40.579-18.25,76.422-46.137,98.017c82.983-12.354,151.591-49.12,186.888-98.017  C469.204,207.102,400.595,170.337,317.612,157.982z" data-original="#F5F5F5"/><path style="fill:#6BF1FF;" d="M256.001,153.47c21.563,0,42.54,1.621,62.667,4.672c32.362,20.621,53.817,56.742,53.817,97.858  s-21.455,77.237-53.817,97.858c-20.128,3.051-41.105,4.672-62.667,4.672s-42.54-1.621-62.667-4.672  c-32.362-20.621-53.817-56.742-53.817-97.858s21.455-77.237,53.817-97.858C213.461,155.091,234.438,153.47,256.001,153.47z" data-original="#6BF1FF"/><path style="fill:#47D6FF;" d="M168.748,256c0,36.578,11.214,70.539,30.387,98.681c-1.939-0.265-3.877-0.532-5.801-0.823  c-32.362-20.621-53.817-56.742-53.817-97.858s21.455-77.237,53.817-97.858c1.924-0.292,3.862-0.558,5.801-0.823  C179.962,185.461,168.748,219.422,168.748,256z" data-original="#47D6FF"/><path style="fill:#007F9A;" d="M301.203,257.409L301.203,257.409c-9.32,13.36-21.208,24.744-34.975,33.493l-7.695,4.89  c-1.544,0.981-3.52,0.981-5.064,0l-7.695-4.89c-13.767-8.749-25.655-20.133-34.975-33.493l0,0  c-7.215-10.784-5.788-25.144,3.409-34.309l0,0c10.204-10.168,26.749-10.168,36.954,0l1.509,1.504c1.839,1.832,4.82,1.832,6.659,0  l1.509-1.504c10.204-10.168,26.749-10.168,36.953,0l0,0C306.991,232.264,308.418,246.624,301.203,257.409z" data-original="#007F9A"/><path d="M511.684,258.153c0.085-0.283,0.151-0.569,0.202-0.857c0.016-0.089,0.031-0.177,0.043-0.267  c0.095-0.684,0.095-1.375,0-2.059c-0.012-0.089-0.028-0.177-0.043-0.266c-0.051-0.289-0.117-0.575-0.202-0.857  c-0.017-0.056-0.028-0.113-0.047-0.169c-0.091-0.278-0.195-0.552-0.319-0.821c-22.388-48.506-57.694-89.596-102.102-118.826  c-5.015-3.301-10.123-6.42-15.308-9.376l16.89-17.405c2.884-2.973,2.813-7.721-0.16-10.605c-2.973-2.885-7.721-2.813-10.606,0.159  l-19.895,20.501c-16.637-8.29-34.003-14.865-51.869-19.658l8.836-21.764c1.558-3.838-0.29-8.212-4.128-9.771  c-3.836-1.557-8.213,0.291-9.771,4.128l-9.694,23.878c-16.411-3.453-33.177-5.426-50.128-5.871V63.5c0-4.142-3.358-7.5-7.5-7.5  c-4.142,0-7.5,3.358-7.5,7.5v24.753c-17.52,0.474-34.841,2.579-51.775,6.264l-9.856-24.277c-1.559-3.838-5.934-5.686-9.771-4.128  c-3.838,1.558-5.686,5.933-4.128,9.771l9.038,22.261c-17.219,4.746-33.963,11.156-50.028,19.161l-19.895-20.501  c-2.885-2.973-7.633-3.044-10.606-0.159c-2.973,2.884-3.044,7.633-0.159,10.605l16.89,17.405  c-5.185,2.956-10.294,6.076-15.309,9.376c-44.407,29.23-79.714,70.32-102.102,118.826c-0.124,0.267-0.227,0.541-0.318,0.818  c-0.02,0.06-0.032,0.121-0.05,0.182c-0.083,0.277-0.148,0.557-0.198,0.84c-0.017,0.093-0.033,0.186-0.046,0.28  c-0.094,0.68-0.094,1.367,0,2.047c0.013,0.094,0.029,0.186,0.046,0.28c0.05,0.283,0.115,0.563,0.198,0.84  c0.018,0.06,0.031,0.122,0.05,0.182c0.09,0.277,0.194,0.55,0.318,0.818C23.071,307.65,58.377,348.74,102.785,377.97  c5.015,3.301,10.123,6.42,15.308,9.376l-16.889,17.405c-2.885,2.973-2.814,7.721,0.159,10.605c1.458,1.414,3.341,2.118,5.223,2.118  c1.957,0,3.912-0.762,5.383-2.277l19.894-20.502c16.571,8.257,33.867,14.813,51.659,19.601l-8.859,21.821  c-1.558,3.838,0.29,8.212,4.128,9.771c0.924,0.375,1.879,0.553,2.819,0.553c2.963,0,5.769-1.767,6.952-4.681l9.713-23.923  c16.404,3.465,33.163,5.452,50.109,5.91V448.5c0,4.142,3.358,7.5,7.5,7.5c4.142,0,7.5-3.358,7.5-7.5v-24.747  c16.378-0.43,32.584-2.279,48.463-5.518l9.551,23.524c1.184,2.914,3.989,4.681,6.952,4.681c0.939,0,1.895-0.178,2.818-0.553  c3.838-1.558,5.686-5.933,4.128-9.771l-8.658-21.324c18.441-4.827,36.357-11.556,53.499-20.098l19.895,20.502  c1.471,1.516,3.426,2.277,5.384,2.277c1.881,0,3.765-0.704,5.222-2.118c2.973-2.884,3.044-7.633,0.16-10.605l-16.89-17.405  c5.185-2.956,10.293-6.075,15.308-9.376c44.408-29.23,79.714-70.32,102.102-118.826c0.124-0.268,0.228-0.543,0.319-0.821  C511.656,258.266,511.668,258.209,511.684,258.153z M495.136,256.002c-31.104,40.05-84.7,70.22-149.143,84.938  c21.643-22.651,33.997-52.803,33.997-84.94c0-32.059-12.293-62.144-33.839-84.777C409.981,185.973,464.047,216.033,495.136,256.002z   M256.001,103.139c83.255,0,161.147,39.949,211.079,105.24c-17.161-12.723-37.008-23.899-59.08-33.176  c-27.127-11.402-56.861-19.581-87.979-24.311c-0.118-0.022-0.237-0.037-0.356-0.053c-20.73-3.133-42.071-4.738-63.665-4.738  c-21.601,0-42.948,1.607-63.685,4.741c-0.109,0.015-0.219,0.029-0.328,0.048c-31.12,4.73-60.857,12.909-87.986,24.312  c-22.072,9.277-41.919,20.453-59.081,33.177C94.854,143.088,172.746,103.139,256.001,103.139z M16.867,256  c31.09-39.969,85.154-70.028,148.985-84.777c-21.546,22.633-33.839,52.718-33.839,84.777s12.293,62.144,33.839,84.777  C102.021,326.028,47.956,295.969,16.867,256z M256.001,408.861c-83.255,0-161.147-39.949-211.08-105.241  c17.162,12.723,37.009,23.9,59.081,33.177c27.178,11.423,56.973,19.611,88.154,24.337c0.082,0.013,0.163,0.026,0.244,0.036  c20.71,3.126,42.029,4.729,63.601,4.729c5.184,0,10.424-0.093,15.574-0.277c4.14-0.147,7.375-3.623,7.228-7.762  c-0.147-4.141-3.667-7.397-7.763-7.228c-4.972,0.177-10.032,0.267-15.039,0.267c-20.458,0-40.584-1.519-60.047-4.419  c-30.673-20.174-48.941-53.865-48.941-90.481s18.268-70.306,48.941-90.481c19.464-2.9,39.59-4.419,60.047-4.419  c20.458,0,40.583,1.519,60.047,4.419c30.672,20.174,48.941,53.865,48.941,90.481c0,36.658-18.31,70.384-49.047,90.551  c-6.383,0.936-12.838,1.744-19.374,2.384c-4.122,0.403-7.137,4.072-6.735,8.194c0.404,4.123,4.065,7.141,8.196,6.734  c66.267-6.482,125.717-28.051,168.964-60.127C417.057,368.959,339.207,408.861,256.001,408.861z M307.352,261.701  c0.028-0.04,0.056-0.08,0.082-0.12c9.184-13.708,7.355-32.109-4.349-43.756c-12.957-12.894-33.945-13.04-47.085-0.441  c-13.139-12.599-34.127-12.452-47.084,0.441c-11.704,11.646-13.533,30.049-4.35,43.756c0.027,0.041,0.055,0.081,0.083,0.12  c9.94,14.23,22.424,26.17,37.106,35.488l7.693,4.882c1.99,1.264,4.271,1.896,6.553,1.896c2.28,0,4.561-0.632,6.551-1.895  l7.695-4.883C284.929,287.872,297.413,275.932,307.352,261.701z M262.209,284.524l-6.208,3.94l-6.208-3.94  c-12.976-8.234-24.012-18.782-32.802-31.349c-5.155-7.753-4.105-18.138,2.507-24.719c7.271-7.235,19.102-7.235,26.374,0.001  l1.508,1.5c4.754,4.73,12.488,4.731,17.241,0l1.51-1.502c7.27-7.235,19.102-7.235,26.372,0c0.001,0,0.001,0,0.001,0  c6.613,6.58,7.661,16.965,2.506,24.719C286.22,265.743,275.184,276.29,262.209,284.524z" data-original="#000000" class="active-path" style="fill:#000000"/></g> </svg>
