<?xml version="1.0"?>
<svg xmlns="http://www.w3.org/2000/svg" xmlns:xlink="http://www.w3.org/1999/xlink" version="1.1" id="Capa_1" x="0px" y="0px" viewBox="0 0 512 512" style="enable-background:new 0 0 512 512;" xml:space="preserve" width="512px" height="512px" class=""><g transform="matrix(0.668972 0 0 0.668972 84.7432 84.7432)"><path style="fill:#605F6D;" d="M81.725,15.312l61.593,61.592c6.832,6.832,6.832,17.908,0,24.74l-40,40  c-6.832,6.832-17.908,6.832-24.74,0L16.986,80.052c-15.437,40.252-6.96,87.573,25.492,120.025  c32.192,32.192,79.015,40.79,119.057,25.857l232.874,254.654c23.911,26.148,64.804,27.06,89.859,2.006l0,0  c25.173-25.173,24.114-66.301-2.322-90.145L226.71,162.236c16.181-40.551,7.87-88.603-24.96-121.433  C169.298,8.351,121.978-0.125,81.725,15.312z M457.601,438.193c0,10.289-8.34,18.629-18.629,18.629s-18.629-8.341-18.629-18.629  s8.341-18.629,18.629-18.629C449.261,419.564,457.601,427.904,457.601,438.193z" data-original="#605F6D" class=""/><g>
	<path style="fill:#53515E;" d="M205.506,138.771L227.934,159c14.491-39.849,5.778-86.235-26.184-118.196   c-2.399-2.399-4.888-4.651-7.441-6.788C215.391,65.221,219.121,104.65,205.506,138.771z" data-original="#53515E"/>
	<path style="fill:#53515E;" d="M373.031,457.211l21.377,23.376c23.911,26.148,64.804,27.06,89.859,2.006l0,0   c25.173-25.173,24.114-66.301-2.322-90.145l-8.676-7.825c13.313,23.608,10.069,54.229-10.207,74.504l0,0   C438.008,484.181,396.942,483.359,373.031,457.211" data-original="#53515E"/>
	<path style="fill:#53515E;" d="M161.534,225.933l-21.205-23.466c-37.053,13.819-79.904,7.472-111.604-19.059   c3.971,5.877,8.55,11.466,13.752,16.669C74.67,232.269,121.493,240.867,161.534,225.933" data-original="#53515E"/>
	<path style="fill:#53515E;" d="M304.314,232.231l-19.797,19.797l-13.261-13.261c-8.217-8.217-21.54-8.217-29.757,0l-18.12,18.12   c4.563,11.752,4.544,24.873-0.059,36.611l43.81,47.907c9.579-4.465,20.275-5.748,30.496-3.845   c6.081,1.132,12.328-0.794,16.702-5.167l10.398-10.398c8.217-8.217,8.217-21.54,0-29.757l0,0c-7.324-7.324-7.324-19.198,0-26.522   l7.925-7.925L304.314,232.231z" data-original="#53515E"/>
</g><path style="fill:#E9EBF2;" d="M499.84,69.574l-34.051-34.051c-3.275-3.275-8.786-2.443-10.948,1.653l-18.331,34.73L269.004,239.411  l26.948,26.947L463.457,98.853l34.73-18.331C502.283,78.36,503.115,72.849,499.84,69.574z" data-original="#E9EBF2"/><path style="fill:#C7CAD3;" d="M499.84,69.574l-8.597-8.597c0.602,2.87-0.661,6.003-3.517,7.51l-34.73,18.331L285.491,254.323  l-15.7-15.7l-0.788,0.788l26.948,26.947L463.457,98.853l34.73-18.331C502.283,78.36,503.115,72.849,499.84,69.574z" data-original="#C7CAD3"/><path style="fill:#FFDC64;" d="M239.035,337.092c14.537-14.537,35.759-18.297,53.768-11.305l18.12-18.12  c8.217-8.217,8.217-21.54,0-29.757l-53.469-53.469c-8.217-8.217-21.54-8.217-29.757,0l-18.12,18.12  c6.992,18.008,3.232,39.23-11.305,53.768c-14.537,14.537-35.759,18.297-53.768,11.305l-96.058,96.058  c-22.982,22.982-22.982,60.244,0,83.226l0,0c22.983,22.983,60.244,22.983,83.227,0l96.058-96.058  C220.737,372.851,224.497,351.629,239.035,337.092z" data-original="#FFDC64"/><path style="fill:#FFC850;" d="M310.922,277.91l-12.643-12.643c1.771,6.958-0.042,14.64-5.488,20.085l-18.12,18.12  c-18.008-6.992-39.23-3.232-53.767,11.305s-18.297,35.759-11.305,53.768l-96.059,96.058c-20.968,20.968-53.816,22.795-76.868,5.503  c2.827,6.087,6.751,11.791,11.773,16.812c22.982,22.982,60.244,22.982,83.227,0l96.058-96.059  c-6.992-18.008-3.232-39.23,11.305-53.768c14.537-14.537,35.759-18.297,53.768-11.305l18.12-18.12  C319.139,299.45,319.139,286.127,310.922,277.91z" data-original="#FFC850"/><g>
	<path style="fill:#FF6B5C;" d="M82.46,433.959c-2.007,0-4.016-0.766-5.548-2.297c-3.064-3.065-3.064-8.031,0-11.096l74.318-74.318   c3.065-3.063,8.031-3.063,11.096,0c3.064,3.065,3.064,8.031,0,11.096l-74.318,74.318C86.476,433.193,84.467,433.959,82.46,433.959z   " data-original="#FF6B5C"/>
	<path style="fill:#FF6B5C;" d="M109.919,461.419c-2.007,0-4.016-0.766-5.548-2.297c-3.064-3.065-3.064-8.031,0-11.096   l74.318-74.318c3.065-3.063,8.031-3.063,11.096,0c3.064,3.065,3.064,8.031,0,11.096l-74.318,74.318   C113.935,460.652,111.927,461.419,109.919,461.419z" data-original="#FF6B5C"/>
</g><path d="M465.447,438.193c0-14.598-11.876-26.475-26.474-26.475s-26.475,11.876-26.475,26.475c0,14.598,11.876,26.474,26.475,26.474  C453.571,464.667,465.447,452.791,465.447,438.193z M428.188,438.193c0-5.946,4.838-10.784,10.784-10.784  c5.946,0,10.784,4.838,10.784,10.784c0,5.946-4.838,10.784-10.784,10.784S428.188,444.139,428.188,438.193z" data-original="#000000" class="active-path" style="fill:#000000"/><path d="M510.303,436.82c-0.5-19.383-8.704-37.211-23.102-50.198L329.249,244.157l139.658-139.658  c0.918-0.274,1.825-0.615,2.7-1.077L501.85,87.46c4.178-2.206,6.98-6.152,7.685-10.823c0.706-4.672-0.805-9.268-4.146-12.612  l-34.052-34.051c-3.342-3.341-7.935-4.852-12.611-4.146c-4.671,0.705-8.616,3.507-10.823,7.686L431.94,63.755  c-0.466,0.883-0.824,1.796-1.099,2.723l-65.92,65.92c-3.064,3.065-3.064,8.031,0,11.096c3.065,3.062,8.031,3.062,11.096,0  l60.492-60.493l15.853,15.853l-154.7,154.7l-15.853-15.853l67.525-67.524c3.064-3.065,3.064-8.031,0-11.096  c-3.065-3.062-8.031-3.062-11.096,0l-48.994,48.994l-53.322-48.094c15.118-43.516,4.17-91.931-28.625-124.725  C173.706,1.665,123.314-9.04,78.916,7.987c-2.481,0.952-4.312,3.094-4.864,5.693s0.247,5.301,2.126,7.18l61.592,61.593  c1.822,1.822,2.827,4.245,2.827,6.822c0,2.577-1.004,5-2.827,6.823l-39.999,39.999c-1.822,1.823-4.245,2.827-6.822,2.827  c-2.577,0-5-1.003-6.823-2.827L22.533,74.504c-1.88-1.879-4.58-2.678-7.18-2.126c-2.599,0.553-4.741,2.383-5.693,4.864  c-17.027,44.396-6.322,94.788,27.27,128.381c31.991,31.99,79.468,43.253,122.299,29.414l41.227,45.083  c-1.981,3.871-4.557,7.481-7.734,10.658c-11.884,11.884-29.695,15.628-45.38,9.54c-2.899-1.128-6.188-0.434-8.388,1.765  l-96.059,96.059c-26.004,26.005-26.004,68.317,0,94.32C55.494,505.063,72.243,512,90.058,512c17.814,0,34.564-6.937,47.161-19.534  l96.059-96.058c2.198-2.199,2.891-5.489,1.765-8.388c-6.089-15.684-2.345-33.497,9.538-45.381  c11.886-11.884,29.698-15.628,45.382-9.54c2.901,1.128,6.188,0.432,8.388-1.765l18.12-18.12c5.456-5.456,8.46-12.711,8.46-20.426  s-3.004-14.97-8.46-20.426l-7.713-7.713l9.383-9.383l158.552,143.007c11.172,10.077,17.539,23.911,17.926,38.951  c0.387,15.04-5.259,29.183-15.898,39.821c-10.588,10.59-24.695,16.226-39.636,15.903c-14.971-0.334-28.781-6.604-38.886-17.655  L282.31,346.378c-2.927-3.199-7.887-3.419-11.084-0.495c-3.197,2.925-3.419,7.887-0.495,11.084l117.888,128.915  c13.024,14.241,30.822,22.321,50.115,22.752c0.54,0.012,1.079,0.018,1.618,0.018c18.688,0,36.199-7.249,49.464-20.512  C503.526,474.429,510.801,456.203,510.303,436.82z M167.324,220.639c-2.16-2.36-5.534-3.174-8.532-2.056  c-38.363,14.31-81.845,4.868-110.768-24.052c-26.262-26.263-36.438-64.337-27.471-99.815l52.477,52.477  c4.787,4.786,11.15,7.421,17.918,7.421s13.131-2.635,17.917-7.421l39.999-39.999c4.786-4.787,7.421-11.15,7.421-17.918  s-2.635-13.131-7.421-17.917L96.388,18.88c35.475-8.971,73.553,1.208,99.814,27.471c29.659,29.657,38.773,74.003,23.222,112.978  c-1.217,3.049-0.407,6.534,2.032,8.733l56.679,51.122l-7.422,7.422L263,218.893c-5.456-5.456-12.711-8.46-20.426-8.46  s-14.97,3.004-20.426,8.46l-18.12,18.12c-2.198,2.199-2.891,5.489-1.765,8.388c2.087,5.375,2.992,10.997,2.837,16.548  L167.324,220.639z M305.374,302.119l-14.682,14.683c-20.192-5.821-42.164-0.299-57.205,14.741h-0.001  c-15.04,15.041-20.563,37.01-14.74,57.206l-92.622,92.62c-9.634,9.634-22.442,14.94-36.065,14.94s-26.433-5.306-36.065-14.94  c-19.887-19.886-19.887-52.244,0-72.131l92.621-92.621c20.194,5.824,42.163,0.298,57.205-14.742  c15.04-15.041,20.564-37.01,14.741-57.205l14.683-14.682c5.144-5.146,13.517-5.146,18.661,0l13.261,13.261l26.947,26.947  l13.261,13.261C310.52,288.603,310.52,296.975,305.374,302.119z M461.168,41.996l32.199,32.199l-28.454,15.019L446.149,70.45  L461.168,41.996z" data-original="#000000" class="active-path" style="fill:#000000"/><path d="M162.326,346.249c-3.065-3.063-8.031-3.063-11.096,0l-74.318,74.318c-3.064,3.065-3.064,8.031,0,11.096  c1.532,1.531,3.541,2.297,5.548,2.297s4.016-0.766,5.548-2.297l74.318-74.318C165.389,354.28,165.389,349.313,162.326,346.249z" data-original="#000000" class="active-path" style="fill:#000000"/><path d="M178.689,373.708l-74.318,74.317c-3.064,3.065-3.064,8.031,0,11.096c1.532,1.531,3.54,2.297,5.548,2.297  c2.007,0,4.016-0.766,5.548-2.297l74.318-74.317c3.064-3.065,3.064-8.031,0-11.096C186.721,370.645,181.754,370.645,178.689,373.708  z" data-original="#000000" class="active-path" style="fill:#000000"/></g> </svg>
